<svg version="1.1" id="Layer_1" xmlns="http://www.w3.org/2000/svg" xmlns:xlink="http://www.w3.org/1999/xlink" x="0px" y="0px"
	 width="100%" viewBox="0 0 200 200" enable-background="new 0 0 200 200" xml:space="preserve">
<path fill="#083B66" opacity="1.000000" stroke="none" 
	d="
M99.000000,201.000000 
	C66.020325,201.000000 33.540646,201.000000 1.030484,201.000000 
	C1.030484,134.395355 1.030484,67.790695 1.030484,1.093015 
	C67.562851,1.093015 134.125885,1.093015 200.844452,1.093015 
	C200.844452,67.666382 200.844452,134.333145 200.844452,201.000000 
	C167.124313,201.000000 133.312149,201.000000 99.000000,201.000000 
M98.873398,83.815514 
	C99.892128,80.297760 99.065018,77.802956 95.263260,77.479126 
	C95.263260,73.924255 95.263260,70.813637 95.263260,67.473602 
	C100.220047,67.384094 99.434509,64.381020 98.775299,61.276978 
	C93.532097,61.276978 88.467087,61.276978 83.195938,61.276978 
	C83.195938,63.182468 83.195938,64.792160 83.195938,65.508171 
	C84.819168,67.261002 86.780525,68.404228 86.950256,69.770103 
	C87.278893,72.414658 87.182457,77.279289 86.236404,77.542931 
	C81.950851,78.737213 82.914551,81.288704 83.331970,84.338737 
	C88.387039,84.338737 93.333374,84.338737 98.873398,83.815514 
M116.255592,78.080002 
	C113.255966,73.044617 114.336678,67.993370 119.029655,66.372650 
	C118.940735,64.725754 118.847862,63.005707 118.757431,61.330894 
	C113.205864,61.330894 108.166893,61.330894 103.021233,61.330894 
	C103.021233,63.313457 103.021233,64.937492 103.021233,66.599907 
	C104.424576,67.012619 105.648849,67.372665 106.966248,67.760101 
	C106.966248,71.101654 106.966248,74.229393 106.966248,77.690254 
	C102.009613,77.960732 102.107346,80.813202 103.423271,84.297256 
	C108.650284,84.297256 113.604080,84.297256 119.913445,84.297256 
	C118.763168,81.776581 117.943413,79.980186 116.255592,78.080002 
M103.605888,115.062469 
	C106.318588,110.507607 109.031288,105.952744 112.278831,100.499825 
	C108.595528,100.862953 106.388245,101.080566 103.712402,101.344376 
	C104.298637,97.679016 104.796722,94.564781 105.294807,91.450554 
	C104.951866,91.335487 104.608925,91.220428 104.265984,91.105370 
	C101.057854,96.626976 97.849724,102.148582 94.282639,108.288010 
	C97.668625,108.106834 99.917625,107.986496 102.727798,107.836136 
	C101.785828,111.673645 100.962608,115.027405 100.139389,118.381157 
	C100.427460,118.492027 100.715523,118.602898 101.003593,118.713768 
	C101.737617,117.692108 102.471642,116.670448 103.605888,115.062469 
z"/>
<path fill="#B8D2B1" opacity="1.000000" stroke="none" 
	d="
M98.576553,84.077126 
	C93.333374,84.338737 88.387039,84.338737 83.331970,84.338737 
	C82.914551,81.288704 81.950851,78.737213 86.236404,77.542931 
	C87.182457,77.279289 87.278893,72.414658 86.950256,69.770103 
	C86.780525,68.404228 84.819168,67.261002 83.195938,65.508171 
	C83.195938,64.792160 83.195938,63.182468 83.195938,61.276978 
	C88.467087,61.276978 93.532097,61.276978 98.775299,61.276978 
	C99.434509,64.381020 100.220047,67.384094 95.263260,67.473602 
	C95.263260,70.813637 95.263260,73.924255 95.263260,77.479126 
	C99.065018,77.802956 99.892128,80.297760 98.576553,84.077126 
z"/>
<path fill="#B6D1B0" opacity="1.000000" stroke="none" 
	d="
M116.689621,78.131897 
	C117.943413,79.980186 118.763168,81.776581 119.913445,84.297256 
	C113.604080,84.297256 108.650284,84.297256 103.423271,84.297256 
	C102.107346,80.813202 102.009613,77.960732 106.966248,77.690254 
	C106.966248,74.229393 106.966248,71.101654 106.966248,67.760101 
	C105.648849,67.372665 104.424576,67.012619 103.021233,66.599907 
	C103.021233,64.937492 103.021233,63.313457 103.021233,61.330894 
	C108.166893,61.330894 113.205864,61.330894 118.757431,61.330894 
	C118.847862,63.005707 118.940735,64.725754 119.029655,66.372650 
	C114.336678,67.993370 113.255966,73.044617 116.689621,78.131897 
z"/>
<path fill="#B1CCAE" opacity="1.000000" stroke="none" 
	d="
M103.405777,115.355637 
	C102.471642,116.670448 101.737617,117.692108 101.003593,118.713768 
	C100.715523,118.602898 100.427460,118.492027 100.139389,118.381157 
	C100.962608,115.027405 101.785828,111.673645 102.727798,107.836136 
	C99.917625,107.986496 97.668625,108.106834 94.282639,108.288010 
	C97.849724,102.148582 101.057854,96.626976 104.265984,91.105370 
	C104.608925,91.220428 104.951866,91.335487 105.294807,91.450554 
	C104.796722,94.564781 104.298637,97.679016 103.712402,101.344376 
	C106.388245,101.080566 108.595528,100.862953 112.278831,100.499825 
	C109.031288,105.952744 106.318588,110.507607 103.405777,115.355637 
z"/>
</svg>